<?xml version="1.0" encoding="UTF-8" standalone="no"?>
<!DOCTYPE svg PUBLIC "-//W3C//DTD SVG 1.1//EN" "http://www.w3.org/Graphics/SVG/1.1/DTD/svg11.dtd">
<svg xmlns="http://www.w3.org/2000/svg" version="1.1" viewBox="0.00 0.00 32.00 32.00" width="32.00" height="32.00">
<path stroke="#9daacf" stroke-width="2.00" fill="none" stroke-linecap="butt" vector-effect="non-scaling-stroke" d="
  M 17.24 12.98
  L 17.41 10.31
  Q 17.46 9.58 18.18 9.53
  L 19.74 9.40
  A 1.73 1.72 51.3 0 0 20.11 6.03
  Q 16.44 4.89 14.35 8.05
  C 13.44 9.44 13.69 11.34 13.62 13.00
  Q 13.60 13.57 13.03 13.55
  L 11.60 13.51
  Q 10.95 13.50 10.95 14.15
  L 10.96 16.79
  A 0.55 0.55 0.0 0 0 11.54 17.34
  L 13.07 17.27
  Q 13.65 17.25 13.65 17.82
  L 13.65 25.33
  Q 13.65 26.00 14.33 26.00
  L 16.64 26.00
  Q 17.29 26.00 17.29 25.35
  L 17.30 17.87
  Q 17.31 17.29 17.88 17.30
  L 20.05 17.33
  Q 20.69 17.34 20.76 16.70
  L 21.05 14.07
  Q 21.11 13.52 20.56 13.52
  L 17.74 13.51
  Q 17.20 13.51 17.24 12.98"
/>
<path fill="#3a559f" d="
  M 14.12 0.00
  L 17.99 0.00
  Q 29.82 2.47 32.00 14.35
  L 32.00 17.75
  Q 29.69 29.80 17.64 32.00
  L 14.03 32.00
  Q 2.29 29.50 0.00 17.89
  L 0.00 14.02
  Q 2.40 2.26 14.12 0.00
  Z
  M 17.24 12.98
  L 17.41 10.31
  Q 17.46 9.58 18.18 9.53
  L 19.74 9.40
  A 1.73 1.72 51.3 0 0 20.11 6.03
  Q 16.44 4.89 14.35 8.05
  C 13.44 9.44 13.69 11.34 13.62 13.00
  Q 13.60 13.57 13.03 13.55
  L 11.60 13.51
  Q 10.95 13.50 10.95 14.15
  L 10.96 16.79
  A 0.55 0.55 0.0 0 0 11.54 17.34
  L 13.07 17.27
  Q 13.65 17.25 13.65 17.82
  L 13.65 25.33
  Q 13.65 26.00 14.33 26.00
  L 16.64 26.00
  Q 17.29 26.00 17.29 25.35
  L 17.30 17.87
  Q 17.31 17.29 17.88 17.30
  L 20.05 17.33
  Q 20.69 17.34 20.76 16.70
  L 21.05 14.07
  Q 21.11 13.52 20.56 13.52
  L 17.74 13.51
  Q 17.20 13.51 17.24 12.98
  Z"
/>
<path fill="#ffffff" d="
  M 17.74 13.51
  L 20.56 13.52
  Q 21.11 13.52 21.05 14.07
  L 20.76 16.70
  Q 20.69 17.34 20.05 17.33
  L 17.88 17.30
  Q 17.31 17.29 17.30 17.87
  L 17.29 25.35
  Q 17.29 26.00 16.64 26.00
  L 14.33 26.00
  Q 13.65 26.00 13.65 25.33
  L 13.65 17.82
  Q 13.65 17.25 13.07 17.27
  L 11.54 17.34
  A 0.55 0.55 0.0 0 1 10.96 16.79
  L 10.95 14.15
  Q 10.95 13.50 11.60 13.51
  L 13.03 13.55
  Q 13.60 13.57 13.62 13.00
  C 13.69 11.34 13.44 9.44 14.35 8.05
  Q 16.44 4.89 20.11 6.03
  A 1.73 1.72 51.3 0 1 19.74 9.40
  L 18.18 9.53
  Q 17.46 9.58 17.41 10.31
  L 17.24 12.98
  Q 17.20 13.51 17.74 13.51
  Z"
/>
</svg>
